<svg xmlns="http://www.w3.org/2000/svg" xmlns:xlink="http://www.w3.org/1999/xlink" width="2000" zoomAndPan="magnify" viewBox="0 0 1500 1499.999933" height="2000" preserveAspectRatio="xMidYMid meet" version="1.0"><defs><g/><clipPath id="de17e2b940"><rect x="0" width="298" y="0" height="151"/></clipPath><clipPath id="a21b426296"><rect x="0" width="352" y="0" height="151"/></clipPath></defs><path fill="#ffffff" d="M 805.125 766.566406 C 815.488281 758.414062 825.503906 749.847656 835.210938 740.9375 C 826.058594 750.433594 816.109375 759.140625 805.125 766.566406 Z M 1052.820312 476.246094 C 1055.515625 439.390625 1043.355469 398.285156 1013.445312 376.730469 C 1024.636719 418.804688 1019.210938 464.019531 1004.53125 505.019531 C 1000.144531 517.316406 995 529.199219 989.160156 540.871094 L 989.160156 699.28125 C 989.160156 707.050781 985.878906 714.097656 980.664062 719.070312 L 1041.25 816.652344 C 1047.503906 826.738281 1041.457031 840.96875 1030.851562 840.96875 L 658.945312 840.96875 C 655.976562 842.695312 652.96875 844.421875 649.894531 846.113281 L 1029.816406 846.113281 C 1018.488281 853.542969 1005.222656 857.511719 991.648438 857.511719 L 628.167969 857.511719 C 582.125 880.136719 530.96875 895.058594 479.191406 891.292969 C 472.285156 890.8125 465.550781 889.636719 459.160156 887.324219 C 412.21875 870.121094 465.375 762.523438 485.582031 728.15625 C 499.8125 703.875 518.226562 682.628906 540.191406 659.28125 L 540.191406 455.039062 C 540.191406 439.910156 552.421875 427.679688 567.550781 427.679688 L 917.417969 427.679688 C 912.445312 416.039062 898.351562 407.335938 886.675781 412.621094 C 898.285156 406.265625 910.199219 399.738281 923.429688 397.59375 C 936.660156 395.523438 951.582031 398.699219 960.078125 408.785156 C 964.707031 414.417969 966.777344 421.117188 967.226562 428.234375 C 972.859375 429.339844 977.867188 432.207031 981.667969 436.246094 C 982.875 419.496094 980.664062 402.257812 968.644531 391.273438 C 953.722656 377.597656 930.335938 379.738281 910.996094 385.539062 C 889.71875 391.894531 869.476562 401.738281 851.273438 414.484375 C 857.59375 408.0625 854.242188 408.371094 862.117188 403.949219 C 862.117188 403.5 862.152344 403.121094 862.222656 402.671875 C 898.699219 363.46875 947.46875 335.765625 1000.144531 326.128906 C 1018.347656 322.8125 1037.863281 321.640625 1054.546875 329.445312 C 1075.101562 339.046875 1087.878906 361.015625 1091.195312 383.46875 C 1094.511719 405.886719 1089.640625 428.785156 1082.628906 450.304688 C 1071.785156 483.636719 1055.722656 515.207031 1035.238281 543.671875 C 1046.121094 516.453125 1051.199219 498.558594 1052.855469 476.210938 Z M 968.714844 468.199219 C 968.714844 463.121094 966.8125 458.457031 963.738281 454.863281 C 963.636719 455.277344 963.496094 455.695312 963.394531 456.109375 C 938.765625 546.089844 888.4375 627.570312 826.300781 698.726562 L 869.164062 698.726562 C 873.035156 693.199219 876.765625 687.570312 880.460938 681.972656 C 917.558594 625.429688 950.09375 564.671875 968.714844 499.941406 Z M 530.175781 797.859375 C 525.445312 805.460938 530.039062 816.203125 537.984375 816.203125 L 645.820312 816.203125 C 661.984375 805.355469 677.320312 793.265625 692.140625 780.796875 C 712.484375 763.628906 732.175781 745.566406 750.929688 726.636719 L 578.394531 726.636719 C 574.699219 728.433594 571.523438 731.265625 569.347656 734.855469 L 530.210938 797.894531 Z M 559.261719 678.347656 C 559.261719 689.640625 568.378906 698.726562 579.605469 698.726562 L 777.285156 698.726562 C 838.355469 631.128906 887.367188 553.6875 914.757812 468.128906 C 916.902344 461.566406 918.835938 454.65625 919.59375 447.785156 L 579.605469 447.785156 C 568.378906 447.785156 559.261719 456.902344 559.261719 468.164062 Z M 540.160156 699.277344 L 540.160156 668.433594 C 494.804688 721.453125 442.371094 857.546875 497.464844 857.894531 C 508.3125 857.929688 519.089844 857.753906 529.832031 857.0625 C 519.019531 855.855469 508.621094 852.160156 499.46875 846.148438 L 589.105469 846.148438 C 593.457031 844.664062 597.773438 842.9375 602.023438 841.003906 L 498.398438 841.003906 C 487.792969 841.003906 481.75 826.769531 488 816.683594 L 548.585938 719.105469 C 543.371094 714.132812 540.089844 707.085938 540.089844 699.3125 Z M 958.660156 734.855469 C 956.417969 731.265625 953.273438 728.433594 949.613281 726.636719 L 850.339844 726.636719 C 845.402344 731.507812 840.359375 736.273438 835.210938 740.972656 C 839.734375 736.34375 843.949219 731.574219 848.09375 726.636719 L 800.945312 726.636719 C 800.703125 726.945312 800.394531 727.1875 800.152344 727.464844 C 782.292969 746.222656 745.335938 782.488281 697.289062 816.203125 L 990.023438 816.203125 C 997.96875 816.203125 1002.5625 805.460938 997.832031 797.859375 L 958.695312 734.824219 Z M 968.714844 577.554688 C 960.007812 591.578125 950.648438 605.222656 941.113281 618.625 C 921.253906 646.429688 900.113281 673.375 877.144531 698.691406 L 948.332031 698.691406 C 959.628906 698.691406 968.714844 689.574219 968.714844 678.3125 Z M 540.160156 639.867188 L 540.160156 609.957031 C 504.441406 649.4375 475.222656 696.515625 456.328125 746.289062 C 481.09375 708.398438 506.929688 670.644531 540.160156 639.867188 Z M 439.4375 922.175781 C 405.480469 912.78125 418.78125 854.855469 422.371094 842.347656 C 424.964844 833.402344 426.691406 831.089844 431.59375 816.203125 C 414.289062 846.148438 406.933594 882.660156 409.316406 916.992188 C 409.867188 924.695312 411.285156 933.160156 417.261719 938.027344 C 421.957031 941.898438 428.488281 942.625 434.566406 942.796875 C 466.6875 943.726562 498.085938 933.816406 528.242188 922.761719 C 498.707031 928.597656 468.449219 930.152344 439.4375 922.140625 Z M 439.4375 922.175781 " fill-opacity="1" fill-rule="nonzero"/><g transform="matrix(1, 0, 0, 1, 427, 882)"><g clip-path="url(#de17e2b940)"><g fill="#89f1ff" fill-opacity="1"><g transform="translate(0.335377, 117.231105)"><g><path d="M 7.03125 -86.328125 L 49.578125 -86.328125 C 59.191406 -86.328125 67.675781 -84.578125 75.03125 -81.078125 C 82.394531 -77.585938 88.113281 -72.59375 92.1875 -66.09375 C 96.257812 -59.601562 98.296875 -51.960938 98.296875 -43.171875 C 98.296875 -34.367188 96.257812 -26.71875 92.1875 -20.21875 C 88.113281 -13.726562 82.394531 -8.734375 75.03125 -5.234375 C 67.675781 -1.742188 59.191406 0 49.578125 0 L 7.03125 0 Z M 48.34375 -22.6875 C 54.59375 -22.6875 59.585938 -24.472656 63.328125 -28.046875 C 67.066406 -31.628906 68.9375 -36.671875 68.9375 -43.171875 C 68.9375 -49.660156 67.066406 -54.691406 63.328125 -58.265625 C 59.585938 -61.847656 54.59375 -63.640625 48.34375 -63.640625 L 36.140625 -63.640625 L 36.140625 -22.6875 Z M 48.34375 -22.6875 "/></g></g></g><g fill="#89f1ff" fill-opacity="1"><g transform="translate(102.204266, 117.231105)"><g><path d="M 65.859375 -15.046875 L 33.046875 -15.046875 L 27.25 0 L -2.34375 0 L 35.390625 -86.328125 L 64 -86.328125 L 101.75 0 L 71.65625 0 Z M 57.84375 -36.015625 L 49.453125 -57.71875 L 41.0625 -36.015625 Z M 57.84375 -36.015625 "/></g></g></g><g fill="#89f1ff" fill-opacity="1"><g transform="translate(201.606584, 117.231105)"><g><path d="M 58.328125 -31.328125 L 58.328125 0 L 29.234375 0 L 29.234375 -31.703125 L -3.328125 -86.328125 L 27.375 -86.328125 L 45.015625 -56.484375 L 62.78125 -86.328125 L 90.890625 -86.328125 Z M 58.328125 -31.328125 "/></g></g></g></g></g><g transform="matrix(1, 0, 0, 1, 728, 882)"><g clip-path="url(#a21b426296)"><g fill="#ffffff" fill-opacity="1"><g transform="translate(0.760029, 117.231105)"><g><path d="M 28.125 -70.046875 L 0.5 -70.046875 L 0.5 -86.328125 L 75.71875 -86.328125 L 75.71875 -70.046875 L 48.09375 -70.046875 L 48.09375 0 L 28.125 0 Z M 28.125 -70.046875 "/></g></g></g><g fill="#ffffff" fill-opacity="1"><g transform="translate(76.976712, 117.231105)"><g><path d="M 77.078125 -16.03125 L 77.078125 0 L 10.234375 0 L 10.234375 -86.328125 L 75.484375 -86.328125 L 75.484375 -70.296875 L 30.09375 -70.296875 L 30.09375 -51.546875 L 70.171875 -51.546875 L 70.171875 -36.015625 L 30.09375 -36.015625 L 30.09375 -16.03125 Z M 77.078125 -16.03125 "/></g></g></g><g fill="#ffffff" fill-opacity="1"><g transform="translate(159.729757, 117.231105)"><g><path d="M 51.546875 1.484375 C 42.753906 1.484375 34.800781 -0.425781 27.6875 -4.25 C 20.570312 -8.070312 14.976562 -13.375 10.90625 -20.15625 C 6.84375 -26.945312 4.8125 -34.617188 4.8125 -43.171875 C 4.8125 -51.710938 6.84375 -59.375 10.90625 -66.15625 C 14.976562 -72.945312 20.570312 -78.253906 27.6875 -82.078125 C 34.800781 -85.898438 42.796875 -87.8125 51.671875 -87.8125 C 59.148438 -87.8125 65.910156 -86.492188 71.953125 -83.859375 C 78.003906 -81.234375 83.082031 -77.453125 87.1875 -72.515625 L 74.359375 -60.671875 C 68.523438 -67.421875 61.289062 -70.796875 52.65625 -70.796875 C 47.3125 -70.796875 42.539062 -69.625 38.34375 -67.28125 C 34.15625 -64.9375 30.890625 -61.664062 28.546875 -57.46875 C 26.203125 -53.28125 25.03125 -48.515625 25.03125 -43.171875 C 25.03125 -37.828125 26.203125 -33.054688 28.546875 -28.859375 C 30.890625 -24.660156 34.15625 -21.390625 38.34375 -19.046875 C 42.539062 -16.710938 47.3125 -15.546875 52.65625 -15.546875 C 61.289062 -15.546875 68.523438 -18.957031 74.359375 -25.78125 L 87.1875 -13.9375 C 83.082031 -8.914062 77.988281 -5.085938 71.90625 -2.453125 C 65.820312 0.171875 59.035156 1.484375 51.546875 1.484375 Z M 51.546875 1.484375 "/></g></g></g><g fill="#ffffff" fill-opacity="1"><g transform="translate(250.129149, 117.231105)"><g><path d="M 89.40625 -86.328125 L 89.40625 0 L 69.4375 0 L 69.4375 -35.390625 L 30.21875 -35.390625 L 30.21875 0 L 10.234375 0 L 10.234375 -86.328125 L 30.21875 -86.328125 L 30.21875 -52.296875 L 69.4375 -52.296875 L 69.4375 -86.328125 Z M 89.40625 -86.328125 "/></g></g></g></g></g></svg>