<svg xmlns="http://www.w3.org/2000/svg" xmlns:xlink="http://www.w3.org/1999/xlink" width="2000" zoomAndPan="magnify" viewBox="0 0 1500 1499.999933" height="2000" preserveAspectRatio="xMidYMid meet" version="1.0"><defs><g/><clipPath id="65c88dd879"><path d="M 448.988281 406.734375 L 1051.003906 406.734375 L 1051.003906 797.230469 L 448.988281 797.230469 Z M 448.988281 406.734375 " clip-rule="nonzero"/></clipPath><clipPath id="44e32714d7"><path d="M 1051 630.628906 L 1051 629.195312 C 1051 627.28125 1050.988281 625.363281 1050.890625 623.441406 C 1050.835938 621.523438 1050.710938 619.601562 1050.550781 617.675781 C 1049.941406 609.980469 1048.679688 602.265625 1046.671875 594.679688 C 1042.660156 579.515625 1035.734375 564.878906 1026.179688 552.027344 C 1016.667969 539.140625 1004.542969 528.042969 990.636719 519.710938 C 976.734375 511.398438 961.132812 505.710938 944.925781 503.304688 C 936.828125 502.050781 928.585938 501.695312 920.378906 502.035156 C 912.179688 502.464844 904.015625 503.699219 896.054688 505.65625 C 880.140625 509.628906 865.109375 516.574219 851.859375 525.609375 C 850.179688 526.722656 848.554688 527.882812 846.953125 529.078125 C 845.320312 530.246094 843.769531 531.484375 842.203125 532.71875 C 840.617188 533.933594 839.132812 535.242188 837.617188 536.519531 L 836.484375 537.484375 L 835.304688 538.550781 L 832.960938 540.699219 L 831.828125 541.757812 L 830.929688 542.636719 L 829.128906 544.398438 L 828.675781 544.839844 L 827.910156 545.617188 L 826.917969 546.648438 L 824.9375 548.707031 C 822.367188 551.453125 819.867188 554.210938 817.492188 556.964844 C 807.949219 567.984375 799.542969 579.007812 791.292969 589.925781 C 783.078125 600.839844 775.105469 611.636719 767.21875 622.3125 C 751.421875 643.601562 735.453125 664.144531 718.289062 682.582031 C 709.753906 691.828125 700.910156 700.515625 691.703125 708.285156 C 682.511719 716.058594 672.988281 722.972656 663.15625 728.457031 C 653.328125 733.9375 643.265625 738.039062 633.09375 740.359375 C 630.546875 740.945312 627.996094 741.410156 625.441406 741.777344 C 624.164062 741.996094 622.878906 742.066406 621.601562 742.234375 C 620.921875 742.328125 620.394531 742.347656 619.855469 742.386719 L 618.226562 742.507812 L 617.820312 742.539062 L 617.617188 742.5625 L 617.304688 742.566406 L 616.046875 742.597656 L 613.527344 742.652344 L 611.597656 742.699219 L 609.164062 742.734375 C 606.523438 742.75 603.875 742.628906 601.238281 742.445312 C 580.128906 740.820312 559.238281 732.464844 542.042969 718.90625 C 533.449219 712.136719 525.789062 704.121094 519.433594 695.214844 C 513.035156 686.351562 507.882812 676.609375 504.375 666.347656 C 502.613281 661.222656 501.230469 655.980469 500.296875 650.660156 C 500.046875 649.328125 499.859375 647.992188 499.65625 646.660156 C 499.496094 645.34375 499.296875 643.898438 499.203125 642.796875 C 499.144531 642.179688 499.074219 641.726562 499.019531 640.78125 L 498.867188 638.597656 L 498.738281 634.460938 C 498.492188 623.433594 499.75 612.398438 502.683594 601.742188 C 504.183594 596.425781 506.015625 591.191406 508.25 586.113281 C 510.539062 581.054688 513.175781 576.144531 516.144531 571.421875 C 522.164062 562.042969 529.429688 553.320312 537.996094 545.980469 C 546.476562 538.535156 556.175781 532.464844 566.53125 527.796875 C 571.726562 525.492188 577.082031 523.507812 582.582031 521.933594 C 588.097656 520.425781 593.730469 519.285156 599.449219 518.511719 L 609.730469 517.121094 L 614.144531 509.691406 C 617.457031 504.121094 621.125 498.746094 625.117188 493.609375 C 629.109375 488.460938 633.386719 483.507812 637.984375 478.84375 C 647.171875 469.511719 657.585938 461.285156 668.894531 454.410156 C 680.171875 447.484375 692.390625 441.929688 705.191406 437.972656 C 711.597656 436.007812 718.128906 434.382812 724.773438 433.15625 C 726.4375 432.878906 728.101562 432.570312 729.769531 432.320312 L 734.796875 431.636719 L 739.679688 431.109375 L 745.132812 430.734375 L 750.0625 430.527344 L 755.179688 430.472656 C 758.59375 430.507812 762.011719 430.582031 765.433594 430.789062 C 772.273438 431.203125 779.109375 432.042969 785.890625 433.316406 C 799.441406 435.894531 812.839844 440.023438 825.59375 445.910156 C 831.960938 448.851562 838.226562 452.125 844.265625 455.832031 C 850.300781 459.542969 856.136719 463.636719 861.761719 468.054688 C 867.382812 472.488281 872.734375 477.300781 877.851562 482.402344 C 882.9375 487.542969 887.777344 492.949219 892.304688 498.710938 C 888.878906 492.273438 885.003906 485.976562 880.695312 479.996094 C 876.410156 473.988281 871.679688 468.261719 866.597656 462.820312 C 861.523438 457.367188 856.050781 452.246094 850.253906 447.472656 C 844.457031 442.707031 838.355469 438.234375 831.929688 434.230469 C 819.089844 426.222656 805.160156 419.675781 790.472656 415.140625 C 783.136719 412.859375 775.636719 411.023438 768.023438 409.664062 C 764.21875 408.984375 760.386719 408.414062 756.53125 407.992188 C 754.601562 407.808594 752.671875 407.59375 750.738281 407.441406 L 747.839844 407.25 L 746.382812 407.15625 L 745.292969 407.089844 L 745.199219 407.078125 L 744.925781 407.078125 L 744.75 407.070312 L 739.285156 406.875 L 733.265625 406.871094 L 727.40625 407.042969 C 725.453125 407.128906 723.5 407.285156 721.546875 407.402344 C 713.746094 407.988281 705.949219 409.070312 698.246094 410.707031 C 682.828125 413.933594 667.738281 419.128906 653.460938 426.160156 C 639.214844 433.242188 625.820312 442.167969 613.664062 452.640625 C 607.59375 457.878906 601.8125 463.492188 596.425781 469.488281 C 593.257812 473.023438 590.230469 476.699219 587.324219 480.464844 C 582.601562 481.003906 577.890625 481.71875 573.210938 482.664062 C 565.640625 484.25 558.1875 486.417969 550.886719 489.078125 C 543.59375 491.746094 536.566406 495.128906 529.746094 498.882812 C 522.917969 502.632812 516.417969 506.980469 510.238281 511.753906 C 504.054688 516.519531 498.175781 521.722656 492.78125 527.402344 C 487.386719 533.078125 482.273438 539.074219 477.785156 545.539062 C 473.285156 551.996094 469.234375 558.773438 465.671875 565.816406 C 462.15625 572.890625 459.179688 580.242188 456.699219 587.769531 C 451.84375 602.839844 449.144531 618.6875 448.988281 634.546875 L 448.996094 640.492188 L 449.097656 643.34375 C 449.109375 644.074219 449.195312 645.300781 449.261719 646.359375 C 449.390625 648.605469 449.582031 650.503906 449.773438 652.527344 C 450 654.527344 450.222656 656.527344 450.523438 658.511719 C 451.660156 666.476562 453.449219 674.339844 455.804688 682.003906 C 460.527344 697.351562 467.5625 711.902344 476.535156 725.085938 C 485.550781 738.246094 496.417969 750.074219 508.75 760.191406 C 521.074219 770.308594 534.898438 778.691406 549.753906 784.929688 C 564.605469 791.171875 580.546875 795.109375 596.777344 796.523438 C 600.835938 796.859375 604.910156 797.066406 608.988281 797.09375 L 614.707031 797.042969 L 617.226562 796.996094 L 618.492188 796.972656 L 618.808594 796.964844 L 619.234375 796.941406 L 620.082031 796.894531 L 623.488281 796.691406 C 624.628906 796.617188 625.777344 796.546875 626.765625 796.425781 C 628.824219 796.191406 630.894531 796.03125 632.9375 795.710938 C 637.035156 795.136719 641.101562 794.40625 645.113281 793.5 C 661.183594 789.894531 676.246094 783.675781 689.839844 775.988281 C 703.457031 768.304688 715.75 759.28125 727 749.613281 C 738.246094 739.925781 748.5 729.609375 758.101562 719.019531 C 777.230469 697.75 793.8125 675.363281 809.652344 653.207031 C 817.597656 642.152344 825.214844 631.042969 832.835938 620.234375 C 840.460938 609.453125 848.078125 598.863281 855.855469 589.316406 C 857.792969 586.914062 859.746094 584.636719 861.699219 582.410156 L 863.160156 580.785156 L 863.890625 579.976562 C 863.820312 580.042969 864.304688 579.542969 863.78125 580.074219 L 864 579.847656 L 864.4375 579.390625 L 866.183594 577.570312 L 867.054688 576.664062 L 867.753906 575.984375 L 869.078125 574.675781 L 869.734375 574.011719 L 870.492188 573.3125 C 871.507812 572.386719 872.492188 571.410156 873.546875 570.539062 C 874.582031 569.644531 875.605469 568.734375 876.683594 567.902344 C 877.738281 567.035156 878.804688 566.191406 879.902344 565.394531 C 888.570312 558.878906 898.132812 553.984375 908.191406 550.953125 C 918.25 548 928.800781 546.863281 939.277344 547.808594 C 949.757812 548.726562 960.113281 551.808594 969.597656 556.730469 C 979.027344 561.738281 987.726562 568.425781 994.777344 576.730469 C 1001.890625 584.980469 1007.402344 594.722656 1011.0625 605.316406 C 1012.945312 610.597656 1014.332031 616.113281 1015.253906 621.773438 C 1015.492188 623.183594 1015.707031 624.609375 1015.859375 626.042969 C 1016.058594 627.46875 1016.179688 628.914062 1016.300781 630.355469 L 1016.394531 631.441406 C 1016.394531 631.441406 1016.414062 631.816406 1016.414062 631.515625 L 1016.425781 631.828125 L 1016.523438 633.71875 L 1016.554688 634.347656 L 1016.570312 634.664062 C 1016.582031 633.921875 1016.578125 634.636719 1016.582031 634.554688 C 1016.621094 636.21875 1016.675781 638.039062 1016.671875 639.261719 C 1016.703125 640.589844 1016.648438 642.109375 1016.628906 643.578125 C 1016.554688 645.046875 1016.519531 646.523438 1016.390625 647.988281 C 1016.207031 650.933594 1015.859375 653.871094 1015.453125 656.804688 C 1014.644531 662.667969 1013.378906 668.492188 1011.675781 674.210938 C 1004.851562 697.082031 991.007812 718.335938 972 734.210938 C 962.554688 742.199219 951.84375 748.871094 940.273438 753.832031 C 928.71875 758.84375 916.308594 762.175781 903.527344 763.582031 C 890.757812 765.050781 877.613281 764.617188 864.667969 762.351562 C 851.734375 759.992188 838.976562 755.78125 826.886719 749.761719 C 837.703125 757.828125 849.917969 764.320312 862.996094 768.769531 C 876.078125 773.246094 889.960938 775.613281 904.054688 776 C 918.136719 776.289062 932.410156 774.4375 946.183594 770.40625 C 959.933594 766.332031 973.175781 760.160156 985.304688 752.109375 C 997.386719 744.007812 1008.355469 734.0625 1017.710938 722.644531 C 1027.074219 711.234375 1034.683594 698.261719 1040.292969 684.382812 C 1043.097656 677.4375 1045.386719 670.257812 1047.117188 662.925781 C 1047.976562 659.257812 1048.695312 655.546875 1049.253906 651.816406 C 1049.5625 649.949219 1049.773438 648.074219 1050.019531 646.199219 C 1050.207031 644.3125 1050.421875 642.480469 1050.554688 640.445312 C 1050.722656 638.316406 1050.789062 636.777344 1050.890625 635.078125 L 1050.976562 632.132812 L 1050.992188 631.5 L 1051.003906 631.1875 Z M 1051 630.628906 " clip-rule="nonzero"/></clipPath><clipPath id="2a328e652d"><path d="M 1051 630.628906 L 1051 629.195312 C 1051 627.28125 1050.988281 625.363281 1050.890625 623.441406 C 1050.835938 621.523438 1050.710938 619.601562 1050.550781 617.675781 C 1049.941406 609.980469 1048.679688 602.265625 1046.671875 594.679688 C 1042.660156 579.515625 1035.734375 564.878906 1026.179688 552.027344 C 1016.667969 539.140625 1004.542969 528.042969 990.636719 519.710938 C 976.734375 511.398438 961.132812 505.710938 944.925781 503.304688 C 936.828125 502.050781 928.585938 501.695312 920.378906 502.035156 C 912.179688 502.464844 904.015625 503.699219 896.054688 505.65625 C 880.140625 509.628906 865.109375 516.574219 851.859375 525.609375 C 850.179688 526.722656 848.554688 527.882812 846.953125 529.078125 C 845.320312 530.246094 843.769531 531.484375 842.203125 532.71875 C 840.617188 533.933594 839.132812 535.242188 837.617188 536.519531 L 836.484375 537.484375 L 835.304688 538.550781 L 832.960938 540.699219 L 831.828125 541.757812 L 830.929688 542.636719 L 829.128906 544.398438 L 828.675781 544.839844 L 827.910156 545.617188 L 826.917969 546.648438 L 824.9375 548.707031 C 822.367188 551.453125 819.867188 554.210938 817.492188 556.964844 C 807.949219 567.984375 799.542969 579.007812 791.292969 589.925781 C 783.078125 600.839844 775.105469 611.636719 767.21875 622.3125 C 751.421875 643.601562 735.453125 664.144531 718.289062 682.582031 C 709.753906 691.828125 700.910156 700.515625 691.703125 708.285156 C 682.511719 716.058594 672.988281 722.972656 663.15625 728.457031 C 653.328125 733.9375 643.265625 738.039062 633.09375 740.359375 C 630.546875 740.945312 627.996094 741.410156 625.441406 741.777344 C 624.164062 741.996094 622.878906 742.066406 621.601562 742.234375 C 620.921875 742.328125 620.394531 742.347656 619.855469 742.386719 L 618.226562 742.507812 L 617.820312 742.539062 L 617.617188 742.5625 L 617.304688 742.566406 L 616.046875 742.597656 L 613.527344 742.652344 L 611.597656 742.699219 L 609.164062 742.734375 C 606.523438 742.75 603.875 742.628906 601.238281 742.445312 C 580.128906 740.820312 559.238281 732.464844 542.042969 718.90625 C 533.449219 712.136719 525.789062 704.121094 519.433594 695.214844 C 513.035156 686.351562 507.882812 676.609375 504.375 666.347656 C 502.613281 661.222656 501.230469 655.980469 500.296875 650.660156 C 500.046875 649.328125 499.859375 647.992188 499.65625 646.660156 C 499.496094 645.34375 499.296875 643.898438 499.203125 642.796875 C 499.144531 642.179688 499.074219 641.726562 499.019531 640.78125 L 498.867188 638.597656 L 498.738281 634.460938 C 498.492188 623.433594 499.75 612.398438 502.683594 601.742188 C 504.183594 596.425781 506.015625 591.191406 508.25 586.113281 C 510.539062 581.054688 513.175781 576.144531 516.144531 571.421875 C 522.164062 562.042969 529.429688 553.320312 537.996094 545.980469 C 546.476562 538.535156 556.175781 532.464844 566.53125 527.796875 C 571.726562 525.492188 577.082031 523.507812 582.582031 521.933594 C 588.097656 520.425781 593.730469 519.285156 599.449219 518.511719 L 609.730469 517.121094 L 614.144531 509.691406 C 617.457031 504.121094 621.125 498.746094 625.117188 493.609375 C 629.109375 488.460938 633.386719 483.507812 637.984375 478.84375 C 647.171875 469.511719 657.585938 461.285156 668.894531 454.410156 C 680.171875 447.484375 692.390625 441.929688 705.191406 437.972656 C 711.597656 436.007812 718.128906 434.382812 724.773438 433.15625 C 726.4375 432.878906 728.101562 432.570312 729.769531 432.320312 L 734.796875 431.636719 L 739.679688 431.109375 L 745.132812 430.734375 L 750.0625 430.527344 L 755.179688 430.472656 C 758.59375 430.507812 762.011719 430.582031 765.433594 430.789062 C 772.273438 431.203125 779.109375 432.042969 785.890625 433.316406 C 799.441406 435.894531 812.839844 440.023438 825.59375 445.910156 C 831.960938 448.851562 838.226562 452.125 844.265625 455.832031 C 850.300781 459.542969 856.136719 463.636719 861.761719 468.054688 C 867.382812 472.488281 872.734375 477.300781 877.851562 482.402344 C 882.9375 487.542969 887.777344 492.949219 892.304688 498.710938 C 888.878906 492.273438 885.003906 485.976562 880.695312 479.996094 C 876.410156 473.988281 871.679688 468.261719 866.597656 462.820312 C 861.523438 457.367188 856.050781 452.246094 850.253906 447.472656 C 844.457031 442.707031 838.355469 438.234375 831.929688 434.230469 C 819.089844 426.222656 805.160156 419.675781 790.472656 415.140625 C 783.136719 412.859375 775.636719 411.023438 768.023438 409.664062 C 764.21875 408.984375 760.386719 408.414062 756.53125 407.992188 C 754.601562 407.808594 752.671875 407.59375 750.738281 407.441406 L 747.839844 407.25 L 746.382812 407.15625 L 745.292969 407.089844 L 745.199219 407.078125 L 744.925781 407.078125 L 744.75 407.070312 L 739.285156 406.875 L 733.265625 406.871094 L 727.40625 407.042969 C 725.453125 407.128906 723.5 407.285156 721.546875 407.402344 C 713.746094 407.988281 705.949219 409.070312 698.246094 410.707031 C 682.828125 413.933594 667.738281 419.128906 653.460938 426.160156 C 639.214844 433.242188 625.820312 442.167969 613.664062 452.640625 C 607.59375 457.878906 601.8125 463.492188 596.425781 469.488281 C 593.257812 473.023438 590.230469 476.699219 587.324219 480.464844 C 582.601562 481.003906 577.890625 481.71875 573.210938 482.664062 C 565.640625 484.25 558.1875 486.417969 550.886719 489.078125 C 543.59375 491.746094 536.566406 495.128906 529.746094 498.882812 C 522.917969 502.632812 516.417969 506.980469 510.238281 511.753906 C 504.054688 516.519531 498.175781 521.722656 492.78125 527.402344 C 487.386719 533.078125 482.273438 539.074219 477.785156 545.539062 C 473.285156 551.996094 469.234375 558.773438 465.671875 565.816406 C 462.15625 572.890625 459.179688 580.242188 456.699219 587.769531 C 451.84375 602.839844 449.144531 618.6875 448.988281 634.546875 L 448.996094 640.492188 L 449.097656 643.34375 C 449.109375 644.074219 449.195312 645.300781 449.261719 646.359375 C 449.390625 648.605469 449.582031 650.503906 449.773438 652.527344 C 450 654.527344 450.222656 656.527344 450.523438 658.511719 C 451.660156 666.476562 453.449219 674.339844 455.804688 682.003906 C 460.527344 697.351562 467.5625 711.902344 476.535156 725.085938 C 485.550781 738.246094 496.417969 750.074219 508.75 760.191406 C 521.074219 770.308594 534.898438 778.691406 549.753906 784.929688 C 564.605469 791.171875 580.546875 795.109375 596.777344 796.523438 C 600.835938 796.859375 604.910156 797.066406 608.988281 797.09375 L 614.707031 797.042969 L 617.226562 796.996094 L 618.492188 796.972656 L 618.808594 796.964844 L 619.234375 796.941406 L 620.082031 796.894531 L 623.488281 796.691406 C 624.628906 796.617188 625.777344 796.546875 626.765625 796.425781 C 628.824219 796.191406 630.894531 796.03125 632.9375 795.710938 C 637.035156 795.136719 641.101562 794.40625 645.113281 793.5 C 661.183594 789.894531 676.246094 783.675781 689.839844 775.988281 C 703.457031 768.304688 715.75 759.28125 727 749.613281 C 738.246094 739.925781 748.5 729.609375 758.101562 719.019531 C 777.230469 697.75 793.8125 675.363281 809.652344 653.207031 C 817.597656 642.152344 825.214844 631.042969 832.835938 620.234375 C 840.460938 609.453125 848.078125 598.863281 855.855469 589.316406 C 857.792969 586.914062 859.746094 584.636719 861.699219 582.410156 L 863.160156 580.785156 L 863.890625 579.976562 C 863.820312 580.042969 864.304688 579.542969 863.78125 580.074219 L 864 579.847656 L 864.4375 579.390625 L 866.183594 577.570312 L 867.054688 576.664062 L 867.753906 575.984375 L 869.078125 574.675781 L 869.734375 574.011719 L 870.492188 573.3125 C 871.507812 572.386719 872.492188 571.410156 873.546875 570.539062 C 874.582031 569.644531 875.605469 568.734375 876.683594 567.902344 C 877.738281 567.035156 878.804688 566.191406 879.902344 565.394531 C 888.570312 558.878906 898.132812 553.984375 908.191406 550.953125 C 918.25 548 928.800781 546.863281 939.277344 547.808594 C 949.757812 548.726562 960.113281 551.808594 969.597656 556.730469 C 979.027344 561.738281 987.726562 568.425781 994.777344 576.730469 C 1001.890625 584.980469 1007.402344 594.722656 1011.0625 605.316406 C 1012.945312 610.597656 1014.332031 616.113281 1015.253906 621.773438 C 1015.492188 623.183594 1015.707031 624.609375 1015.859375 626.042969 C 1016.058594 627.46875 1016.179688 628.914062 1016.300781 630.355469 L 1016.394531 631.441406 C 1016.394531 631.441406 1016.414062 631.816406 1016.414062 631.515625 L 1016.425781 631.828125 L 1016.523438 633.71875 L 1016.554688 634.347656 L 1016.570312 634.664062 C 1016.582031 633.921875 1016.578125 634.636719 1016.582031 634.554688 C 1016.621094 636.21875 1016.675781 638.039062 1016.671875 639.261719 C 1016.703125 640.589844 1016.648438 642.109375 1016.628906 643.578125 C 1016.554688 645.046875 1016.519531 646.523438 1016.390625 647.988281 C 1016.207031 650.933594 1015.859375 653.871094 1015.453125 656.804688 C 1014.644531 662.667969 1013.378906 668.492188 1011.675781 674.210938 C 1004.851562 697.082031 991.007812 718.335938 972 734.210938 C 962.554688 742.199219 951.84375 748.871094 940.273438 753.832031 C 928.71875 758.84375 916.308594 762.175781 903.527344 763.582031 C 890.757812 765.050781 877.613281 764.617188 864.667969 762.351562 C 851.734375 759.992188 838.976562 755.78125 826.886719 749.761719 C 837.703125 757.828125 849.917969 764.320312 862.996094 768.769531 C 876.078125 773.246094 889.960938 775.613281 904.054688 776 C 918.136719 776.289062 932.410156 774.4375 946.183594 770.40625 C 959.933594 766.332031 973.175781 760.160156 985.304688 752.109375 C 997.386719 744.007812 1008.355469 734.0625 1017.710938 722.644531 C 1027.074219 711.234375 1034.683594 698.261719 1040.292969 684.382812 C 1043.097656 677.4375 1045.386719 670.257812 1047.117188 662.925781 C 1047.976562 659.257812 1048.695312 655.546875 1049.253906 651.816406 C 1049.5625 649.949219 1049.773438 648.074219 1050.019531 646.199219 C 1050.207031 644.3125 1050.421875 642.480469 1050.554688 640.445312 C 1050.722656 638.316406 1050.789062 636.777344 1050.890625 635.078125 L 1050.976562 632.132812 L 1050.992188 631.5 L 1051.003906 631.1875 L 1051 630.628906 " clip-rule="nonzero"/></clipPath><clipPath id="527ac8c81e"><path d="M 1241.519531 559.894531 L 685.0625 112.949219 L 258.46875 644.070312 L 814.929688 1091.015625 Z M 1241.519531 559.894531 " clip-rule="nonzero"/></clipPath><radialGradient gradientTransform="matrix(-0.626209, 0.779655, -0.779655, -0.626209, 899.704523, 366.145834)" gradientUnits="userSpaceOnUse" r="429.884402" cx="0" id="b14396c19e" cy="0" fx="0" fy="0"><stop stop-opacity="1" stop-color="rgb(0.189209%, 67.83905%, 93.728638%)" offset="0"/><stop stop-opacity="1" stop-color="rgb(0.384521%, 67.657471%, 93.54248%)" offset="0.0078125"/><stop stop-opacity="1" stop-color="rgb(0.584412%, 67.463684%, 93.34259%)" offset="0.0117188"/><stop stop-opacity="1" stop-color="rgb(0.787354%, 67.254639%, 93.133545%)" offset="0.0234375"/><stop stop-opacity="1" stop-color="rgb(0.987244%, 67.059326%, 92.939758%)" offset="0.0351562"/><stop stop-opacity="1" stop-color="rgb(1.179504%, 66.864014%, 92.764282%)" offset="0.046875"/><stop stop-opacity="1" stop-color="rgb(1.348877%, 66.668701%, 92.56897%)" offset="0.0585938"/><stop stop-opacity="1" stop-color="rgb(1.544189%, 66.648865%, 92.549133%)" offset="0.0625"/><stop stop-opacity="1" stop-color="rgb(1.763916%, 66.448975%, 92.54303%)" offset="0.0664062"/><stop stop-opacity="1" stop-color="rgb(2.146912%, 66.081238%, 92.347717%)" offset="0.078125"/><stop stop-opacity="1" stop-color="rgb(2.342224%, 65.887451%, 91.97998%)" offset="0.0898438"/><stop stop-opacity="1" stop-color="rgb(2.372742%, 65.856934%, 91.78009%)" offset="0.101562"/><stop stop-opacity="1" stop-color="rgb(2.572632%, 65.661621%, 91.758728%)" offset="0.105469"/><stop stop-opacity="1" stop-color="rgb(2.94342%, 65.293884%, 91.563416%)" offset="0.117188"/><stop stop-opacity="1" stop-color="rgb(3.334045%, 64.903259%, 91.174316%)" offset="0.144531"/><stop stop-opacity="1" stop-color="rgb(3.72467%, 64.709473%, 90.979004%)" offset="0.148438"/><stop stop-opacity="1" stop-color="rgb(3.919983%, 64.706421%, 90.979004%)" offset="0.160156"/><stop stop-opacity="1" stop-color="rgb(3.919983%, 64.508057%, 90.979004%)" offset="0.164062"/><stop stop-opacity="1" stop-color="rgb(4.11377%, 64.311218%, 90.783691%)" offset="0.167969"/><stop stop-opacity="1" stop-color="rgb(4.328918%, 64.11438%, 90.570068%)" offset="0.179688"/><stop stop-opacity="1" stop-color="rgb(4.534912%, 63.912964%, 90.374756%)" offset="0.191406"/><stop stop-opacity="1" stop-color="rgb(4.910278%, 63.717651%, 90.19928%)" offset="0.203125"/><stop stop-opacity="1" stop-color="rgb(5.281067%, 63.529968%, 90.011597%)" offset="0.214844"/><stop stop-opacity="1" stop-color="rgb(5.476379%, 63.334656%, 89.811707%)" offset="0.21875"/><stop stop-opacity="1" stop-color="rgb(5.683899%, 62.944031%, 89.604187%)" offset="0.230469"/><stop stop-opacity="1" stop-color="rgb(6.069946%, 62.748718%, 89.408875%)" offset="0.242188"/><stop stop-opacity="1" stop-color="rgb(6.265259%, 62.554932%, 89.221191%)" offset="0.253906"/><stop stop-opacity="1" stop-color="rgb(6.269836%, 62.355042%, 89.025879%)" offset="0.261719"/><stop stop-opacity="1" stop-color="rgb(6.367493%, 62.252808%, 89.019775%)" offset="0.269531"/><stop stop-opacity="1" stop-color="rgb(6.567383%, 62.059021%, 88.916016%)" offset="0.273438"/><stop stop-opacity="1" stop-color="rgb(6.863403%, 61.769104%, 88.720703%)" offset="0.28125"/><stop stop-opacity="1" stop-color="rgb(7.243347%, 61.573792%, 88.442993%)" offset="0.300781"/><stop stop-opacity="1" stop-color="rgb(7.449341%, 61.373901%, 88.247681%)" offset="0.308594"/><stop stop-opacity="1" stop-color="rgb(7.653809%, 61.178589%, 88.232422%)" offset="0.316406"/><stop stop-opacity="1" stop-color="rgb(7.839966%, 61.177063%, 88.032532%)" offset="0.324219"/><stop stop-opacity="1" stop-color="rgb(7.839966%, 60.980225%, 87.838745%)" offset="0.332031"/><stop stop-opacity="1" stop-color="rgb(7.839966%, 60.598755%, 87.65564%)" offset="0.335938"/><stop stop-opacity="1" stop-color="rgb(8.021545%, 60.401917%, 87.461853%)" offset="0.34375"/><stop stop-opacity="1" stop-color="rgb(8.317566%, 60.292053%, 87.449646%)" offset="0.347656"/><stop stop-opacity="1" stop-color="rgb(8.529663%, 60.096741%, 87.34436%)" offset="0.355469"/><stop stop-opacity="1" stop-color="rgb(8.824158%, 59.80835%, 87.149048%)" offset="0.363281"/><stop stop-opacity="1" stop-color="rgb(9.01947%, 59.614563%, 86.872864%)" offset="0.382812"/><stop stop-opacity="1" stop-color="rgb(9.213257%, 59.414673%, 86.679077%)" offset="0.390625"/><stop stop-opacity="1" stop-color="rgb(9.414673%, 59.213257%, 86.662292%)" offset="0.398438"/><stop stop-opacity="1" stop-color="rgb(9.609985%, 59.013367%, 86.462402%)" offset="0.40625"/><stop stop-opacity="1" stop-color="rgb(9.986877%, 58.624268%, 86.073303%)" offset="0.421875"/><stop stop-opacity="1" stop-color="rgb(10.281372%, 58.428955%, 85.879517%)" offset="0.4375"/><stop stop-opacity="1" stop-color="rgb(10.488892%, 58.325195%, 85.775757%)" offset="0.441406"/><stop stop-opacity="1" stop-color="rgb(10.783386%, 58.036804%, 85.580444%)" offset="0.449219"/><stop stop-opacity="1" stop-color="rgb(10.978699%, 57.749939%, 85.398865%)" offset="0.464844"/><stop stop-opacity="1" stop-color="rgb(11.074829%, 57.550049%, 85.205078%)" offset="0.472656"/><stop stop-opacity="1" stop-color="rgb(11.270142%, 57.350159%, 85.099792%)" offset="0.480469"/><stop stop-opacity="1" stop-color="rgb(11.463928%, 57.054138%, 84.90448%)" offset="0.488281"/><stop stop-opacity="1" stop-color="rgb(11.659241%, 56.681824%, 84.709167%)" offset="0.503906"/><stop stop-opacity="1" stop-color="rgb(11.935425%, 56.488037%, 84.532166%)" offset="0.515625"/><stop stop-opacity="1" stop-color="rgb(12.147522%, 56.45752%, 84.332275%)" offset="0.519531"/><stop stop-opacity="1" stop-color="rgb(12.365723%, 56.262207%, 84.115601%)" offset="0.53125"/><stop stop-opacity="1" stop-color="rgb(12.548828%, 55.883789%, 83.920288%)" offset="0.542969"/><stop stop-opacity="1" stop-color="rgb(12.724304%, 55.688477%, 83.918762%)" offset="0.554688"/><stop stop-opacity="1" stop-color="rgb(12.919617%, 55.688477%, 83.918762%)" offset="0.558594"/><stop stop-opacity="1" stop-color="rgb(12.95929%, 55.66864%, 83.72345%)" offset="0.5625"/><stop stop-opacity="1" stop-color="rgb(13.153076%, 55.462646%, 83.529663%)" offset="0.566406"/><stop stop-opacity="1" stop-color="rgb(13.328552%, 55.08728%, 83.334351%)" offset="0.578125"/><stop stop-opacity="1" stop-color="rgb(13.516235%, 54.899597%, 83.139038%)" offset="0.589844"/><stop stop-opacity="1" stop-color="rgb(13.739014%, 54.704285%, 83.11615%)" offset="0.59375"/><stop stop-opacity="1" stop-color="rgb(13.946533%, 54.31366%, 82.920837%)" offset="0.605469"/><stop stop-opacity="1" stop-color="rgb(14.31427%, 54.119873%, 82.554626%)" offset="0.617188"/><stop stop-opacity="1" stop-color="rgb(14.509583%, 53.930664%, 82.35321%)" offset="0.628906"/><stop stop-opacity="1" stop-color="rgb(14.692688%, 53.735352%, 82.348633%)" offset="0.636719"/><stop stop-opacity="1" stop-color="rgb(14.886475%, 53.630066%, 82.252502%)" offset="0.644531"/><stop stop-opacity="1" stop-color="rgb(15.002441%, 53.430176%, 82.058716%)" offset="0.648438"/><stop stop-opacity="1" stop-color="rgb(15.197754%, 53.134155%, 81.768799%)" offset="0.65625"/><stop stop-opacity="1" stop-color="rgb(15.478516%, 52.754211%, 81.573486%)" offset="0.675781"/><stop stop-opacity="1" stop-color="rgb(15.689087%, 52.549744%, 81.558228%)" offset="0.683594"/><stop stop-opacity="1" stop-color="rgb(15.893555%, 52.34375%, 81.362915%)" offset="0.691406"/><stop stop-opacity="1" stop-color="rgb(16.079712%, 51.96228%, 80.982971%)" offset="0.707031"/><stop stop-opacity="1" stop-color="rgb(16.265869%, 51.76239%, 80.783081%)" offset="0.714844"/><stop stop-opacity="1" stop-color="rgb(16.471863%, 51.564026%, 80.767822%)" offset="0.722656"/><stop stop-opacity="1" stop-color="rgb(16.677856%, 51.173401%, 80.57251%)" offset="0.730469"/><stop stop-opacity="1" stop-color="rgb(17.056274%, 50.798035%, 80.207825%)" offset="0.746094"/><stop stop-opacity="1" stop-color="rgb(17.248535%, 50.602722%, 80.012512%)" offset="0.761719"/><stop stop-opacity="1" stop-color="rgb(17.248535%, 50.588989%, 79.998779%)" offset="0.765625"/><stop stop-opacity="1" stop-color="rgb(17.448425%, 50.567627%, 79.998779%)" offset="0.769531"/><stop stop-opacity="1" stop-color="rgb(17.649841%, 50.372314%, 79.803467%)" offset="0.773438"/><stop stop-opacity="1" stop-color="rgb(17.649841%, 50.195312%, 79.60968%)" offset="0.785156"/><stop stop-opacity="1" stop-color="rgb(17.649841%, 49.996948%, 79.60968%)" offset="0.789062"/><stop stop-opacity="1" stop-color="rgb(17.843628%, 49.80011%, 79.429626%)" offset="0.792969"/><stop stop-opacity="1" stop-color="rgb(18.03894%, 49.623108%, 79.234314%)" offset="0.804688"/><stop stop-opacity="1" stop-color="rgb(18.209839%, 49.429321%, 79.219055%)" offset="0.808594"/><stop stop-opacity="1" stop-color="rgb(18.414307%, 49.398804%, 79.208374%)" offset="0.8125"/><stop stop-opacity="1" stop-color="rgb(18.634033%, 49.203491%, 79.008484%)" offset="0.816406"/><stop stop-opacity="1" stop-color="rgb(18.911743%, 48.823547%, 78.727722%)" offset="0.824219"/><stop stop-opacity="1" stop-color="rgb(19.113159%, 48.530579%, 78.53241%)" offset="0.84375"/><stop stop-opacity="1" stop-color="rgb(19.219971%, 48.335266%, 78.42865%)" offset="0.851562"/><stop stop-opacity="1" stop-color="rgb(19.320679%, 48.13385%, 78.326416%)" offset="0.859375"/><stop stop-opacity="1" stop-color="rgb(19.515991%, 47.93396%, 78.132629%)" offset="0.867188"/><stop stop-opacity="1" stop-color="rgb(19.804382%, 47.644043%, 77.844238%)" offset="0.882812"/><stop stop-opacity="1" stop-color="rgb(20.193481%, 47.253418%, 77.636719%)" offset="0.894531"/><stop stop-opacity="1" stop-color="rgb(20.388794%, 46.864319%, 77.436829%)" offset="0.90625"/><stop stop-opacity="1" stop-color="rgb(20.578003%, 46.669006%, 77.249146%)" offset="0.917969"/><stop stop-opacity="1" stop-color="rgb(20.773315%, 46.478271%, 77.062988%)" offset="0.925781"/><stop stop-opacity="1" stop-color="rgb(20.779419%, 46.258545%, 76.867676%)" offset="0.933594"/><stop stop-opacity="1" stop-color="rgb(20.779419%, 46.054077%, 76.858521%)" offset="0.941406"/><stop stop-opacity="1" stop-color="rgb(20.7901%, 45.878601%, 76.858521%)" offset="0.945312"/><stop stop-opacity="1" stop-color="rgb(20.98999%, 45.872498%, 76.852417%)" offset="0.949219"/><stop stop-opacity="1" stop-color="rgb(21.369934%, 45.677185%, 76.657104%)" offset="0.953125"/><stop stop-opacity="1" stop-color="rgb(21.565247%, 45.301819%, 76.469421%)" offset="0.964844"/><stop stop-opacity="1" stop-color="rgb(21.763611%, 44.999695%, 76.274109%)" offset="0.972656"/><stop stop-opacity="1" stop-color="rgb(21.958923%, 44.796753%, 75.883484%)" offset="0.984375"/><stop stop-opacity="1" stop-color="rgb(21.958923%, 44.709778%, 75.689697%)" offset="1"/></radialGradient></defs><g clip-path="url(#65c88dd879)"><g clip-path="url(#44e32714d7)"><g clip-path="url(#2a328e652d)"><g clip-path="url(#527ac8c81e)"><path fill="url(#b14396c19e)" d="M 1241.519531 559.890625 L 685.0625 112.949219 L 258.46875 644.074219 L 814.929688 1091.015625 Z M 1241.519531 559.890625 " fill-rule="nonzero"/></g></g></g></g><path fill="#0554bd" d="M 645.800781 715.132812 C 644.765625 715.308594 643.722656 715.367188 642.683594 715.503906 C 642.132812 715.578125 641.703125 715.597656 641.265625 715.625 L 639.945312 715.722656 L 639.613281 715.753906 L 639.449219 715.769531 L 639.195312 715.773438 L 638.175781 715.800781 L 636.128906 715.84375 L 634.5625 715.882812 L 632.585938 715.910156 C 630.4375 715.917969 628.292969 715.828125 626.148438 715.671875 C 609.007812 714.351562 592.042969 707.570312 578.078125 696.558594 C 571.097656 691.0625 564.878906 684.550781 559.71875 677.320312 C 554.519531 670.121094 550.339844 662.207031 547.488281 653.878906 C 546.058594 649.714844 544.9375 645.457031 544.171875 641.136719 C 543.96875 640.058594 543.820312 638.972656 543.65625 637.886719 C 543.523438 636.820312 543.367188 635.648438 543.289062 634.75 C 543.242188 634.25 543.183594 633.886719 543.136719 633.117188 L 543.015625 631.339844 L 542.90625 627.980469 C 542.710938 619.03125 543.734375 610.066406 546.113281 601.414062 C 547.328125 597.097656 548.816406 592.847656 550.632812 588.722656 C 552.496094 584.613281 554.632812 580.628906 557.046875 576.792969 C 561.933594 569.171875 567.835938 562.089844 574.789062 556.128906 C 579.8125 551.722656 585.367188 547.921875 591.265625 544.710938 C 591.210938 544.726562 591.15625 544.738281 591.097656 544.753906 C 586.628906 546.027344 582.28125 547.644531 578.0625 549.515625 C 569.65625 553.304688 561.777344 558.238281 554.890625 564.28125 C 547.9375 570.246094 542.035156 577.320312 537.144531 584.945312 C 534.734375 588.777344 532.59375 592.765625 530.734375 596.871094 C 528.917969 600.996094 527.429688 605.246094 526.214844 609.5625 C 523.835938 618.21875 522.8125 627.179688 523.007812 636.136719 L 523.117188 639.492188 L 523.242188 641.265625 C 523.285156 642.039062 523.339844 642.402344 523.390625 642.90625 C 523.46875 643.796875 523.625 644.96875 523.757812 646.042969 C 523.921875 647.125 524.070312 648.210938 524.277344 649.289062 C 525.039062 653.609375 526.160156 657.867188 527.585938 662.03125 C 530.441406 670.359375 534.621094 678.273438 539.816406 685.472656 C 544.976562 692.703125 551.203125 699.210938 558.179688 704.710938 C 572.140625 715.722656 589.109375 722.503906 606.246094 723.828125 C 608.394531 723.976562 610.542969 724.070312 612.6875 724.0625 L 614.664062 724.035156 L 616.230469 724 L 618.273438 723.949219 L 619.296875 723.925781 L 619.546875 723.921875 L 619.714844 723.902344 L 620.042969 723.875 L 621.367188 723.777344 C 621.804688 723.75 622.230469 723.730469 622.785156 723.652344 C 623.824219 723.523438 624.867188 723.464844 625.902344 723.28125 C 627.980469 722.988281 630.054688 722.609375 632.117188 722.132812 C 639.917969 720.355469 647.640625 717.265625 655.199219 713.183594 C 654.140625 713.472656 653.078125 713.738281 652.015625 713.984375 C 649.953125 714.457031 647.882812 714.832031 645.800781 715.132812 " fill-opacity="1" fill-rule="nonzero"/><path fill="#0554bd" d="M 996.589844 626.90625 L 996.589844 626.128906 C 996.589844 625.09375 996.585938 624.054688 996.53125 623.015625 C 996.496094 621.976562 996.433594 620.9375 996.34375 619.890625 C 996.011719 615.722656 995.332031 611.542969 994.242188 607.433594 C 992.070312 599.21875 988.320312 591.292969 983.140625 584.332031 C 977.992188 577.355469 971.425781 571.339844 963.894531 566.828125 C 956.363281 562.328125 947.910156 559.246094 939.128906 557.941406 C 934.742188 557.261719 930.28125 557.066406 925.835938 557.25 C 921.390625 557.488281 916.96875 558.15625 912.65625 559.214844 C 906.933594 560.644531 901.421875 562.800781 896.257812 565.507812 C 897.292969 565.199219 898.332031 564.910156 899.386719 564.652344 C 903.699219 563.589844 908.117188 562.921875 912.5625 562.691406 C 917.003906 562.503906 921.472656 562.699219 925.855469 563.375 C 934.632812 564.679688 943.085938 567.761719 950.617188 572.265625 C 958.148438 576.777344 964.71875 582.789062 969.871094 589.765625 C 975.046875 596.730469 978.796875 604.65625 980.972656 612.867188 C 982.058594 616.980469 982.742188 621.164062 983.070312 625.332031 C 983.160156 626.371094 983.226562 627.414062 983.253906 628.453125 C 983.308594 629.492188 983.3125 630.535156 983.3125 631.570312 L 983.3125 632.34375 L 983.320312 632.648438 L 983.308594 632.816406 L 983.300781 633.15625 L 983.253906 634.753906 C 983.199219 635.671875 983.164062 636.507812 983.074219 637.660156 C 983 638.765625 982.886719 639.757812 982.78125 640.78125 C 982.652344 641.796875 982.539062 642.8125 982.371094 643.820312 C 982.066406 645.839844 981.675781 647.851562 981.210938 649.839844 C 980.273438 653.8125 979.035156 657.699219 977.515625 661.464844 C 974.476562 668.980469 970.351562 676.003906 965.28125 682.1875 C 960.214844 688.375 954.273438 693.757812 947.726562 698.148438 C 945.394531 699.699219 942.976562 701.113281 940.503906 702.402344 C 947.703125 700.195312 954.636719 696.9375 961 692.710938 C 967.546875 688.320312 973.488281 682.9375 978.554688 676.753906 C 983.628906 670.570312 987.75 663.546875 990.792969 656.023438 C 992.308594 652.265625 993.546875 648.375 994.488281 644.402344 C 994.949219 642.414062 995.339844 640.40625 995.644531 638.382812 C 995.8125 637.375 995.925781 636.359375 996.058594 635.339844 C 996.15625 634.320312 996.277344 633.328125 996.347656 632.226562 C 996.4375 631.074219 996.476562 630.238281 996.53125 629.316406 L 996.574219 627.722656 L 996.585938 627.382812 L 996.589844 627.210938 L 996.589844 626.90625 " fill-opacity="1" fill-rule="nonzero"/><g fill="#000000" fill-opacity="1"><g transform="translate(702.093717, 572.151231)"><g><path d="M 9.59375 -11.734375 C 9.59375 -16.328125 10.820312 -19.796875 13.28125 -22.140625 C 15.75 -24.492188 19.332031 -25.671875 24.03125 -25.671875 C 28.570312 -25.671875 32.085938 -24.46875 34.578125 -22.0625 C 37.066406 -19.65625 38.3125 -16.210938 38.3125 -11.734375 C 38.3125 -7.410156 37.050781 -4.003906 34.53125 -1.515625 C 32.019531 0.972656 28.519531 2.21875 24.03125 2.21875 C 19.4375 2.21875 15.878906 1 13.359375 -1.4375 C 10.847656 -3.875 9.59375 -7.304688 9.59375 -11.734375 Z M 9.59375 -11.734375 "/></g></g></g></svg>